<svg width="698" height="468" viewBox="0 0 698 468" fill="none" xmlns="http://www.w3.org/2000/svg">
<g clip-path="url(#clip0_3728_10424)">
<path d="M558.297 90.3262L562.417 99.0409C564.477 102.502 565.569 106.466 565.569 110.496V165.136C565.569 170.011 561.619 173.955 556.74 173.955H499.835C495.316 173.955 490.588 174.534 486.857 171.983L479.613 166.009" fill="black"/>
<path d="M558.297 90.3262L562.417 99.0409C564.477 102.502 565.569 106.466 565.569 110.496V165.136C565.569 170.011 561.619 173.955 556.74 173.955H499.835C495.316 173.955 490.588 174.534 486.857 171.983L479.613 166.009" stroke="black" stroke-linecap="round" stroke-linejoin="round"/>
<path d="M518.629 168.578V213.328" stroke="black" stroke-linecap="round" stroke-linejoin="round"/>
<path d="M518.63 224.006C521.582 224.006 523.975 221.616 523.975 218.667C523.975 215.718 521.582 213.328 518.63 213.328C515.678 213.328 513.285 215.718 513.285 218.667C513.285 221.616 515.678 224.006 518.63 224.006Z" fill="#B2FD34" stroke="black" stroke-linecap="round" stroke-linejoin="round"/>
<path d="M495.77 168.578V198.146" stroke="black" stroke-linecap="round" stroke-linejoin="round"/>
<path d="M495.771 208.823C498.723 208.823 501.116 206.433 501.116 203.484C501.116 200.536 498.723 198.146 495.771 198.146C492.819 198.146 490.426 200.536 490.426 203.484C490.426 206.433 492.819 208.823 495.771 208.823Z" fill="#B2FD34" stroke="black" stroke-linecap="round" stroke-linejoin="round"/>
<path d="M541.691 168.578V198.146" stroke="black" stroke-linecap="round" stroke-linejoin="round"/>
<path d="M541.693 208.823C544.645 208.823 547.038 206.433 547.038 203.484C547.038 200.536 544.645 198.146 541.693 198.146C538.741 198.146 536.348 200.536 536.348 203.484C536.348 206.433 538.741 208.823 541.693 208.823Z" fill="#B2FD34" stroke="black" stroke-linecap="round" stroke-linejoin="round"/>
<path d="M518.84 95.9019V51.1523" stroke="black" stroke-linecap="round" stroke-linejoin="round"/>
<path d="M518.841 51.1523C521.793 51.1523 524.186 48.762 524.186 45.8135C524.186 42.8649 521.793 40.4746 518.841 40.4746C515.889 40.4746 513.496 42.8649 513.496 45.8135C513.496 48.762 515.889 51.1523 518.841 51.1523Z" fill="#B2FD34" stroke="black" stroke-linecap="round" stroke-linejoin="round"/>
<path d="M541.691 95.9012V66.3242" stroke="black" stroke-linecap="round" stroke-linejoin="round"/>
<path d="M541.693 66.3339C544.645 66.3339 547.038 63.9437 547.038 60.9951C547.038 58.0465 544.645 55.6562 541.693 55.6562C538.741 55.6562 536.348 58.0465 536.348 60.9951C536.348 63.9437 538.741 66.3339 541.693 66.3339Z" fill="#B2FD34" stroke="black" stroke-linecap="round" stroke-linejoin="round"/>
<path d="M495.77 95.9012V66.3242" stroke="black" stroke-linecap="round" stroke-linejoin="round"/>
<path d="M495.771 66.3339C498.723 66.3339 501.116 63.9437 501.116 60.9951C501.116 58.0465 498.723 55.6562 495.771 55.6562C492.819 55.6562 490.426 58.0465 490.426 60.9951C490.426 63.9437 492.819 66.3339 495.771 66.3339Z" fill="#B2FD34" stroke="black" stroke-linecap="round" stroke-linejoin="round"/>
<path d="M557.129 127.575H601.939" stroke="black" stroke-linecap="round" stroke-linejoin="round"/>
<path d="M607.275 132.914C610.227 132.914 612.62 130.524 612.62 127.575C612.62 124.627 610.227 122.236 607.275 122.236C604.323 122.236 601.93 124.627 601.93 127.575C601.93 130.524 604.323 132.914 607.275 132.914Z" fill="#B2FD34" stroke="black" stroke-linecap="round" stroke-linejoin="round"/>
<path d="M557.129 150.409H586.74" stroke="black" stroke-linecap="round" stroke-linejoin="round"/>
<path d="M592.083 155.748C595.035 155.748 597.428 153.358 597.428 150.409C597.428 147.461 595.035 145.07 592.083 145.07C589.131 145.07 586.738 147.461 586.738 150.409C586.738 153.358 589.131 155.748 592.083 155.748Z" fill="#B2FD34" stroke="black" stroke-linecap="round" stroke-linejoin="round"/>
<path d="M557.129 104.541H586.74" stroke="black" stroke-linecap="round" stroke-linejoin="round"/>
<path d="M592.083 109.88C595.035 109.88 597.428 107.49 597.428 104.541C597.428 101.592 595.035 99.2021 592.083 99.2021C589.131 99.2021 586.738 101.592 586.738 104.541C586.738 107.49 589.131 109.88 592.083 109.88Z" fill="#B2FD34" stroke="black" stroke-linecap="round" stroke-linejoin="round"/>
<path d="M477.82 127.366H433.02" stroke="black" stroke-linecap="round" stroke-linejoin="round"/>
<path d="M427.673 132.705C430.625 132.705 433.018 130.315 433.018 127.366C433.018 124.418 430.625 122.027 427.673 122.027C424.721 122.027 422.328 124.418 422.328 127.366C422.328 130.315 424.721 132.705 427.673 132.705Z" fill="#B2FD34" stroke="black" stroke-linecap="round" stroke-linejoin="round"/>
<path d="M477.82 104.541H448.219" stroke="black" stroke-linecap="round" stroke-linejoin="round"/>
<path d="M442.872 109.88C445.824 109.88 448.217 107.49 448.217 104.541C448.217 101.592 445.824 99.2021 442.872 99.2021C439.92 99.2021 437.527 101.592 437.527 104.541C437.527 107.49 439.92 109.88 442.872 109.88Z" fill="#B2FD34" stroke="black" stroke-linecap="round" stroke-linejoin="round"/>
<path d="M477.82 150.409H448.219" stroke="black" stroke-linecap="round" stroke-linejoin="round"/>
<path d="M442.872 155.748C445.824 155.748 448.217 153.358 448.217 150.409C448.217 147.461 445.824 145.07 442.872 145.07C439.92 145.07 437.527 147.461 437.527 150.409C437.527 153.358 439.92 155.748 442.872 155.748Z" fill="#00ED64" stroke="black" stroke-linecap="round" stroke-linejoin="round"/>
<path d="M487.464 169.574H550.018C555.785 169.574 560.461 164.904 560.461 159.143V96.6606C560.461 90.8997 555.785 86.2295 550.018 86.2295L487.464 86.2295C481.697 86.2295 477.021 90.8997 477.021 96.6606V159.143C477.021 164.904 481.697 169.574 487.464 169.574Z" fill="#B2FD34" stroke="black" stroke-linecap="round" stroke-linejoin="round"/>
<mask id="mask0_3728_10424" style="mask-type:luminance" maskUnits="userSpaceOnUse" x="477" y="86" width="84" height="84">
<path d="M487.464 169.574H550.018C555.785 169.574 560.461 164.904 560.461 159.143V96.6606C560.461 90.8997 555.785 86.2295 550.018 86.2295L487.464 86.2295C481.697 86.2295 477.021 90.8997 477.021 96.6606V159.143C477.021 164.904 481.697 169.574 487.464 169.574Z" fill="white"/>
</mask>
<g mask="url(#mask0_3728_10424)">
<path d="M472.69 354.784L473.241 416.384C422.45 441.457 355.339 416.384 355.339 416.384C355.339 416.384 357.39 367.197 354.732 340.275C348.684 278.893 320.27 288.954 320.27 209.232C320.27 150.647 364.425 112.62 425.488 115.513C486.551 118.405 539.155 142.738 539.155 245.835L556.889 284.231C559.253 289.343 556.187 295.317 550.652 296.379L539.155 298.598L530.611 353.532C529.358 361.602 521.44 366.855 513.503 364.892L420.646 341.859" fill="black"/>
<path d="M472.69 354.784L473.241 416.384C422.45 441.457 355.339 416.384 355.339 416.384C355.339 416.384 357.39 367.197 354.732 340.275C348.684 278.893 320.27 288.954 320.27 209.232C320.27 150.647 364.425 112.62 425.488 115.513C486.551 118.405 539.155 142.738 539.155 245.835L556.889 284.231C559.253 289.343 556.187 295.317 550.652 296.379L539.155 298.598L530.611 353.532C529.358 361.602 521.44 366.855 513.503 364.892L420.646 341.859" stroke="black" stroke-miterlimit="10"/>
</g>
<path d="M170.575 184.396L164.575 193.442C160.673 199.321 158.594 206.225 158.594 213.28V293.846C158.594 302.741 165.809 309.948 174.714 309.948H255.78C262.597 309.948 269.261 308.014 275.014 304.372L285.685 297.621" fill="black"/>
<path d="M170.575 184.396L164.575 193.442C160.673 199.321 158.594 206.225 158.594 213.28V293.846C158.594 302.741 165.809 309.948 174.714 309.948H255.78C262.597 309.948 269.261 308.014 275.014 304.372L285.685 297.621" stroke="black" stroke-miterlimit="10"/>
<path d="M280.124 178.602H177.279C171.511 178.602 166.836 183.272 166.836 189.033V291.76C166.836 297.521 171.511 302.191 177.279 302.191H280.124C285.891 302.191 290.567 297.521 290.567 291.76V189.033C290.567 183.272 285.891 178.602 280.124 178.602Z" fill="#00ED64" stroke="black" stroke-linecap="round" stroke-linejoin="round"/>
<path d="M228.695 178.601V112.24" stroke="black" stroke-linecap="round" stroke-linejoin="round"/>
<path d="M228.697 112.241C233.075 112.241 236.624 108.696 236.624 104.322C236.624 99.9494 233.075 96.4043 228.697 96.4043C224.319 96.4043 220.77 99.9494 220.77 104.322C220.77 108.696 224.319 112.241 228.697 112.241Z" fill="#00ED64" stroke="black" stroke-linecap="round" stroke-linejoin="round"/>
<path d="M262.586 178.602V134.744" stroke="black" stroke-linecap="round" stroke-linejoin="round"/>
<path d="M262.587 134.753C266.965 134.753 270.515 131.208 270.515 126.835C270.515 122.462 266.965 118.917 262.587 118.917C258.209 118.917 254.66 122.462 254.66 126.835C254.66 131.208 258.209 134.753 262.587 134.753Z" fill="#00ED64" stroke="black" stroke-linecap="round" stroke-linejoin="round"/>
<path d="M194.488 178.602V134.744" stroke="black" stroke-linecap="round" stroke-linejoin="round"/>
<path d="M194.49 134.753C198.868 134.753 202.417 131.208 202.417 126.835C202.417 122.462 198.868 118.917 194.49 118.917C190.112 118.917 186.562 122.462 186.562 126.835C186.562 131.208 190.112 134.753 194.49 134.753Z" fill="#00ED64" stroke="black" stroke-linecap="round" stroke-linejoin="round"/>
<path d="M228.379 302.191V368.562" stroke="black" stroke-linecap="round" stroke-linejoin="round"/>
<path d="M228.38 384.389C232.758 384.389 236.308 380.844 236.308 376.471C236.308 372.098 232.758 368.553 228.38 368.553C224.002 368.553 220.453 372.098 220.453 376.471C220.453 380.844 224.002 384.389 228.38 384.389Z" fill="#00ED64" stroke="black" stroke-linecap="round" stroke-linejoin="round"/>
<path d="M194.488 302.191V346.05" stroke="black" stroke-linecap="round" stroke-linejoin="round"/>
<path d="M194.49 361.886C198.868 361.886 202.417 358.341 202.417 353.968C202.417 349.595 198.868 346.05 194.49 346.05C190.112 346.05 186.562 349.595 186.562 353.968C186.562 358.341 190.112 361.886 194.49 361.886Z" fill="#00ED64" stroke="black" stroke-linecap="round" stroke-linejoin="round"/>
<path d="M262.586 302.191V346.05" stroke="black" stroke-linecap="round" stroke-linejoin="round"/>
<path d="M262.587 361.886C266.965 361.886 270.515 358.341 270.515 353.968C270.515 349.595 266.965 346.05 262.587 346.05C258.209 346.05 254.66 349.595 254.66 353.968C254.66 358.341 258.209 361.886 262.587 361.886Z" fill="#00ED64" stroke="black" stroke-linecap="round" stroke-linejoin="round"/>
<path d="M166.766 240.239H100.32" stroke="black" stroke-linecap="round" stroke-linejoin="round"/>
<path d="M92.4038 248.158C96.7818 248.158 100.331 244.613 100.331 240.239C100.331 235.866 96.7818 232.321 92.4038 232.321C88.0257 232.321 84.4766 235.866 84.4766 240.239C84.4766 244.613 88.0257 248.158 92.4038 248.158Z" fill="#00ED64" stroke="black" stroke-linecap="round" stroke-linejoin="round"/>
<path d="M166.768 206.386H122.859" stroke="black" stroke-linecap="round" stroke-linejoin="round"/>
<path d="M114.931 214.304C119.309 214.304 122.858 210.759 122.858 206.386C122.858 202.013 119.309 198.468 114.931 198.468C110.553 198.468 107.004 202.013 107.004 206.386C107.004 210.759 110.553 214.304 114.931 214.304Z" fill="#00ED64" stroke="black" stroke-linecap="round" stroke-linejoin="round"/>
<path d="M166.768 274.406H122.859" stroke="black" stroke-linecap="round" stroke-linejoin="round"/>
<path d="M114.931 282.325C119.309 282.325 122.858 278.78 122.858 274.406C122.858 270.033 119.309 266.488 114.931 266.488C110.553 266.488 107.004 270.033 107.004 274.406C107.004 278.78 110.553 282.325 114.931 282.325Z" fill="#00ED64" stroke="black" stroke-linecap="round" stroke-linejoin="round"/>
<mask id="mask1_3728_10424" style="mask-type:luminance" maskUnits="userSpaceOnUse" x="166" y="178" width="125" height="125">
<path d="M280.124 178.602H177.279C171.511 178.602 166.836 183.272 166.836 189.033V291.76C166.836 297.521 171.511 302.191 177.279 302.191H280.124C285.891 302.191 290.567 297.521 290.567 291.76V189.033C290.567 183.272 285.891 178.602 280.124 178.602Z" fill="white"/>
</mask>
<g mask="url(#mask1_3728_10424)">
<path d="M382.608 346.154L383.159 410.988C332.368 436.061 265.257 410.988 265.257 410.988C265.257 410.988 267.308 358.567 264.649 331.655C258.602 270.272 230.188 280.334 230.188 200.611C230.188 142.026 274.342 104 335.406 106.893C396.469 109.785 449.073 134.118 449.073 237.215L466.807 275.611C469.171 280.723 466.105 286.697 460.57 287.759L449.073 289.978L440.529 344.912C439.276 352.982 431.358 358.235 423.421 356.272L330.564 333.239" fill="black"/>
</g>
<path d="M416.764 352.014L417.315 413.615C366.524 438.687 299.413 413.615 299.413 413.615C299.413 413.615 301.464 364.427 298.806 337.505C292.758 276.123 264.344 286.184 264.344 206.462C264.344 147.877 308.499 109.851 369.562 112.743C430.625 115.635 483.229 139.968 483.229 243.066L500.964 281.462C503.328 286.573 500.261 292.547 494.726 293.609L483.229 295.828L474.685 350.762C473.432 358.832 465.514 364.086 457.578 362.123L364.72 339.089" fill="black"/>
<path d="M416.764 352.014L417.315 413.615C366.524 438.687 299.413 413.615 299.413 413.615C299.413 413.615 301.464 364.427 298.806 337.505C292.758 276.123 264.344 286.184 264.344 206.462C264.344 147.877 308.499 109.851 369.562 112.743C430.625 115.635 483.229 139.968 483.229 243.066L500.964 281.462C503.328 286.573 500.261 292.547 494.726 293.609L483.229 295.828L474.685 350.762C473.432 358.832 465.514 364.086 457.578 362.123L364.72 339.089" stroke="black" stroke-miterlimit="10"/>
<path d="M405.893 346.154L406.444 410.988C355.653 436.061 288.542 410.988 288.542 410.988C288.542 410.988 290.593 358.567 287.935 331.655C281.887 270.272 253.473 280.334 253.473 200.611C253.473 142.026 297.628 104 358.691 106.893C419.754 109.785 472.358 134.118 472.358 237.215L490.093 275.611C492.456 280.723 489.39 286.697 483.855 287.759L472.358 289.978L463.814 344.912C462.561 352.982 454.643 358.235 446.706 356.272L353.849 333.239" fill="#E3FCF7"/>
<path d="M405.893 346.154L406.444 410.988C355.653 436.061 288.542 410.988 288.542 410.988C288.542 410.988 290.593 358.567 287.935 331.655C281.887 270.272 253.473 280.334 253.473 200.611C253.473 142.026 297.628 104 358.691 106.893C419.754 109.785 472.358 134.118 472.358 237.215L490.093 275.611C492.456 280.723 489.39 286.697 483.855 287.759L472.358 289.978L463.814 344.912C462.561 352.982 454.643 358.235 446.707 356.272L353.849 333.239" stroke="black" stroke-miterlimit="10"/>
<path d="M430.036 225.647V225.609C430.216 221.142 429.922 216.666 429.134 212.276V212.238L433.729 206.956L437.137 203.039L437.184 202.983L428.982 185.895L417.589 186.302L417.551 186.264C414.827 182.756 411.732 179.55 408.305 176.725L408.267 176.687L408.494 164.368L391.225 156.517L389.327 158.224L382.71 164.179L382.624 164.264H382.586C378.466 163.392 374.27 162.956 370.064 162.946H369.646L361.729 153.179L343.453 158.243L341.792 170.001L341.754 170.039C338.033 171.993 334.539 174.354 331.339 177.066L331.302 177.104L318.637 174.686L307.919 190.314L314.346 200.555V200.593C312.798 204.396 311.65 208.35 310.919 212.38V212.418L299.488 218.762L301.33 237.614L312.893 241.388V241.426C314.146 245.314 315.798 249.069 317.821 252.625L317.859 252.663L313.15 264.906L326.688 278.172L337.871 273.668L337.909 273.706C340.235 275.185 342.665 276.503 345.172 277.651C346.415 278.182 347.726 278.741 349.045 279.234H349.083L353.298 291.448L372.21 292.842L377.735 282.439H377.773C378.836 282.297 379.9 282.126 380.944 281.927C382.121 281.7 383.279 281.463 384.466 281.159C384.855 281.064 385.244 280.96 385.624 280.856C387.181 280.448 388.71 279.974 390.219 279.433H390.257L401.08 285.948L406.273 282.221L416.498 274.891L414.096 263.635L414.134 263.597C417.124 260.354 419.744 256.788 421.956 252.967L421.994 252.929L434.108 250.985H434.222L438.96 232.654L430.017 225.656L430.036 225.647ZM369.219 260.268C361.852 260.268 354.646 258.087 348.514 254C342.381 249.913 337.605 244.091 334.786 237.292C331.966 230.492 331.226 223.001 332.669 215.784C334.102 208.559 337.653 201.93 342.865 196.724C348.077 191.518 354.713 187.971 361.947 186.539C369.172 185.107 376.672 185.838 383.479 188.654C390.286 191.47 396.105 196.24 400.206 202.366C404.298 208.492 406.491 215.69 406.491 223.048C406.491 232.92 402.561 242.393 395.574 249.373C388.586 256.352 379.102 260.278 369.219 260.278V260.268Z" fill="black"/>
<path d="M421.111 215.652V215.614C421.301 211.157 420.997 206.69 420.219 202.3V202.262L424.804 196.989L428.213 193.073L428.26 193.026L420.058 175.928L408.665 176.345L408.627 176.307C405.903 172.799 402.808 169.593 399.38 166.768L399.342 166.73L399.57 154.411L382.311 146.56L380.412 148.267L373.795 154.193L373.71 154.279H373.672C369.551 153.416 365.355 152.98 361.14 152.989H360.722L352.805 143.222L334.529 148.286L332.868 160.044L332.83 160.082C329.108 162.036 325.615 164.397 322.406 167.109L322.368 167.147L309.694 164.7L298.976 180.338L305.403 190.579V190.617C303.865 194.42 302.716 198.374 301.985 202.404V202.442L290.555 208.786L292.396 227.638L303.979 231.393V231.431C305.232 235.319 306.884 239.074 308.906 242.63L308.944 242.668L304.245 254.911L317.782 268.177L328.966 263.673L329.004 263.711C331.339 265.19 333.779 266.508 336.295 267.656C337.539 268.187 338.849 268.746 340.169 269.23H340.206L344.403 281.444L363.314 282.838L368.839 272.425H368.877C369.941 272.283 371.004 272.122 372.058 271.923C373.235 271.695 374.384 271.458 375.58 271.145C375.969 271.05 376.358 270.946 376.738 270.842C378.286 270.434 379.814 269.95 381.333 269.419H381.371L392.194 275.934L397.387 272.207L407.583 264.868L405.172 253.63L405.21 253.592C408.2 250.34 410.82 246.774 413.032 242.962L413.07 242.924L425.184 240.99H425.298L430.035 222.659L421.092 215.661L421.111 215.652ZM360.305 250.273C352.937 250.273 345.732 248.092 339.599 244.005C333.466 239.918 328.691 234.096 325.871 227.297C323.051 220.497 322.311 213.006 323.754 205.789C325.188 198.564 328.738 191.935 333.95 186.729C339.162 181.523 345.798 177.976 353.032 176.544C360.257 175.112 367.757 175.843 374.564 178.659C381.371 181.475 387.2 186.245 391.292 192.371C395.384 198.497 397.577 205.695 397.577 213.053C397.577 222.925 393.646 232.398 386.659 239.378C379.672 246.357 370.187 250.283 360.305 250.283V250.273Z" fill="#006CFA" stroke="black" stroke-linecap="round" stroke-linejoin="round"/>
<path d="M405.675 378.139L358.691 334.442L405.894 346.154" fill="black"/>
<path d="M289.31 373.541C289.31 373.541 342.826 409.481 406.434 407.253L406.462 411.008C406.462 411.008 381.579 424.663 344.298 421.695C307.016 418.727 288.551 411.008 288.551 411.008" fill="black"/>
<path d="M588.228 248.632L598.395 266.232L608.573 283.832H588.228H567.883L578.051 266.232L588.228 248.632Z" fill="white" stroke="black" stroke-linecap="round" stroke-linejoin="round"/>
<path d="M588.228 271.438L567.883 283.833H608.573L588.228 271.438Z" fill="black"/>
<path d="M588.227 271.438V248.632" stroke="black" stroke-linecap="round" stroke-linejoin="round"/>
<path d="M588.96 293.732C588.96 353 540.865 401.04 481.53 401.04H438.789" stroke="black" stroke-linecap="round" stroke-linejoin="round"/>
<path d="M133.89 371.397L116.583 373.72L105.039 357.77L122.014 354.991L133.89 371.397Z" fill="black" stroke="black" stroke-linejoin="round"/>
<path d="M133.92 371.378L141.552 355.693L129.999 339.733L122.043 354.963L133.92 371.378Z" fill="white" stroke="black" stroke-linejoin="round"/>
<path d="M113.128 342.721L105.039 357.77L122.042 354.963L129.998 339.733L113.128 342.721Z" fill="white" stroke="black" stroke-linejoin="round"/>
</g>
<defs>
<clipPath id="clip0_3728_10424">
<rect width="529.091" height="388" fill="white" transform="translate(84 40)"/>
</clipPath>
</defs>
</svg>
